<!--?xml version="1.0" encoding="utf-8"?-->
<!-- Generator: Adobe Illustrator 18.1.1, SVG Export Plug-In . SVG Version: 6.00 Build 0)  -->

<svg version="1.1" id="_x31_0" xmlns="http://www.w3.org/2000/svg" xmlns:xlink="http://www.w3.org/1999/xlink" x="0px" y="0px" viewBox="0 0 512 512" style="enable-background:new 0 0 512 512;" xml:space="preserve">
<style type="text/css">
	.st0{fill:#374149;}
</style>
<g>
	<path class="st0" d="M256,0C114.614,0,0,114.61,0,256c0,141.383,114.614,256,256,256s256-114.617,256-256
		C512,114.61,397.386,0,256,0z M256,448c-105.867,0-192-86.133-192-192S150.133,64,256,64s192,86.133,192,192S361.867,448,256,448z" style="fill: rgb(255, 255, 255);"></path>
	<path class="st0" d="M300.582,182.859l-29.703-51.461l-14.734-25.683l-0.047,0.078l-0.09-0.156l-33.18,57.457l-16.867,29.055
		l0.094,0.003l-0.094,0.161h27.778v66.312l8.5,14.723c1.977,3.441,1.977,7.695-0.016,11.136c-1.781,3.106-4.945,5.133-8.484,5.504
		v83.958l-0.004,0.258h0.004v0.16h44.539V252.871c-3.527-0.355-6.707-2.398-8.5-5.504c-1.993-3.45-1.993-7.695,0-11.133l8.5-14.722
		v-29.199h16.847L300.582,182.859z" style="fill: rgb(255, 255, 255);"></path>
	<polygon class="st0" points="228.168,271.27 222.602,261.621 195.918,215.398 182.691,192.328 182.645,192.406 182.554,192.25 
		149.379,249.703 132.508,278.758 132.602,278.758 132.512,278.918 160.285,278.918 160.285,373.91 160.282,374.203 
		160.285,374.203 160.285,374.363 204.813,374.363 204.813,278.918 222.602,278.918 228.168,278.918 231.031,278.918 
		232.446,278.996 232.402,278.918 232.586,278.918 	" style="fill: rgb(255, 255, 255);"></polygon>
	<polygon class="st0" points="346.141,184.035 329.594,155.215 329.55,155.297 329.457,155.137 313.45,182.859 310.234,188.43 
		304.778,197.879 301.558,203.45 289.41,224.492 283.844,234.129 280.95,239.141 279.414,241.641 279.504,241.641 279.414,241.801 
		283.844,241.801 289.41,241.801 307.187,241.801 307.187,373.797 307.187,374.203 307.187,374.363 351.726,374.363 
		351.726,241.801 370.199,241.801 379.351,241.879 379.305,241.801 379.492,241.801 	" style="fill: rgb(255, 255, 255);"></polygon>
</g>
</svg>
