<!--?xml version="1.0" encoding="utf-8"?-->
<!-- Generator: Adobe Illustrator 18.1.1, SVG Export Plug-In . SVG Version: 6.00 Build 0)  -->

<svg version="1.1" id="_x31_0" xmlns="http://www.w3.org/2000/svg" xmlns:xlink="http://www.w3.org/1999/xlink" x="0px" y="0px" viewBox="0 0 512 512" style="enable-background:new 0 0 512 512;" xml:space="preserve">
<style type="text/css">
	.st0{fill:#374149;}
</style>
<g>
	<path class="st0" d="M256,0C114.617,0,0,114.61,0,256c0,141.383,114.617,256,256,256c141.386,0,256-114.617,256-256
		C512,114.61,397.386,0,256,0z M256,64c105.871,0,192,86.133,192,192s-86.129,192-192,192c-105.867,0-192-86.133-192-192
		S150.133,64,256,64z" style="fill: rgb(255, 255, 255);"></path>
	<polygon class="st0" points="256.102,201.297 256,201.39 256,201.176 174.45,272.512 174.45,368.426 240.75,368.426 240.75,316.95 
		271.641,316.95 271.641,368.106 271.641,368.262 271.641,368.262 271.641,368.426 337.547,368.426 337.547,273.086 
		314.625,253.035 	" style="fill: rgb(255, 255, 255);"></polygon>
	<polygon class="st0" points="108.258,272.766 148.836,272.766 256,179.039 363.187,272.766 403.742,272.766 341.961,218.742 
		341.961,149.129 341.961,148.699 341.961,148.699 341.961,148.539 310.344,148.539 310.344,174.191 310.238,191.004 256,143.578 
		171.672,217.317 108.258,272.606 108.442,272.606 	" style="fill: rgb(255, 255, 255);"></polygon>
</g>
</svg>
