<!--?xml version="1.0" encoding="utf-8"?-->
<!-- Generator: Adobe Illustrator 18.1.1, SVG Export Plug-In . SVG Version: 6.00 Build 0)  -->

<svg version="1.1" id="_x31_0" xmlns="http://www.w3.org/2000/svg" xmlns:xlink="http://www.w3.org/1999/xlink" x="0px" y="0px" viewBox="0 0 512 512" style="width: 256px; height: 256px; opacity: 1;" xml:space="preserve">
<style type="text/css">
	.st0{fill:#374149;}
</style>
<g>
	<path class="st0" d="M256,0C114.614,0,0,114.614,0,256c0,141.383,114.614,256,256,256c141.383,0,256-114.617,256-256
		C512,114.614,397.383,0,256,0z M158.434,335.133c0,3.375-2.738,6.114-6.117,6.114H89.61c-3.379,0-6.118-2.738-6.118-6.114V234.008
		c0-3.375,2.738-6.114,6.118-6.114h62.707c3.378,0,6.117,2.738,6.117,6.114V335.133z M411.918,259.566
		c3.746,5.324,8.25,9.054,8.11,13.93c-0.378,12.809-7.758,15.293-12.906,21.07c2.875,3.766,6.898,7.359,8.883,11.77
		c0.106,0.234,0.222,0.465,0.316,0.703c0.238,0.602,0.414,1.23,0.559,1.871c0.117,0.504,0.164,1.039,0.218,1.566
		c0.047,0.48,0.133,0.945,0.121,1.449c-0.273,10.883-8.226,16.504-14.195,22.394c2.578,3.024,5.418,6.118,7.262,9.664
		c0.231,0.442,0.422,0.899,0.618,1.36c0.375,0.871,0.676,1.777,0.902,2.71c0.179,0.754,0.293,1.531,0.355,2.332
		c0.031,0.391,0.102,0.766,0.102,1.168c-0.031,17.402-14.164,30.406-31.566,30.406h-4.602c-12.019,0.782-21.031,1.211-33.242,1.211
		c-69.527,0-124.152-12.602-162.347-37.418l-5.621-3.668V231.828l9.718-2.148c0.504-0.118,52.32-12.25,71.438-51.07
		c2.847-5.738,5.344-11.008,7.687-15.922c0.688-1.445,1.387-2.847,2.086-4.246c0.507-1.016,1.023-2.012,1.535-2.992
		c1.355-2.598,2.73-5.11,4.136-7.516c0.734-1.25,1.469-2.457,2.207-3.641c1.211-1.949,2.438-3.832,3.684-5.625
		c1.121-1.606,2.246-3.156,3.382-4.614c0.898-1.16,1.813-2.262,2.726-3.336c1.321-1.538,2.645-3.011,3.981-4.351
		c0.774-0.782,1.558-1.5,2.344-2.215c1.422-1.297,2.851-2.515,4.297-3.59c0.742-0.55,1.496-1.046,2.25-1.543
		c1.508-0.992,3.02-1.91,4.547-2.664c0.726-0.359,1.469-0.648,2.203-0.953c1.418-0.59,2.844-1.094,4.278-1.477
		c0.878-0.234,1.766-0.41,2.66-0.566c1.289-0.23,2.586-0.375,3.89-0.442c0.508-0.027,1.012-0.094,1.527-0.094h1.328
		c20.133,0.469,28.246,9.637,31.485,17.207c6.797,15.867-3.39,38.598-17.168,59.313c-0.047,0.07-0.098,0.148-0.145,0.222
		c-0.558,0.832-1.133,1.656-1.703,2.484c-2.71,3.938-5.5,7.75-8.258,11.329h0.062c-0.023,0.027-0.043,0.054-0.062,0.082h75.93
		c17.398,0,32.09,14.172,31.562,31.602C428.149,246.43,419.332,253.598,411.918,259.566z" style="fill: rgb(75, 75, 75);"></path>
	<polygon class="st0" points="104.539,248.859 104.457,248.859 104.457,320.282 137.469,320.282 137.469,248.859 104.938,248.859 	
		" style="fill: rgb(75, 75, 75);"></polygon>
</g>
</svg>
