<!--?xml version="1.0" encoding="utf-8"?-->
<!-- Generator: Adobe Illustrator 18.1.1, SVG Export Plug-In . SVG Version: 6.00 Build 0)  -->

<svg version="1.1" id="_x31_0" xmlns="http://www.w3.org/2000/svg" xmlns:xlink="http://www.w3.org/1999/xlink" x="0px" y="0px" viewBox="0 0 512 512" style="width: 256px; height: 256px; opacity: 1;" xml:space="preserve">
<style type="text/css">
	.st0{fill:#374149;}
</style>
<g>
	<path class="st0" d="M364.063,0H147.872c-30.219,0-54.75,24.602-54.75,54.82v318.27c0,30.149,24.531,54.75,54.75,54.75h37.769
		c-4.812-10.496-8.824-20.122-11.766-27.41h-26.003c-15.11,0-27.41-12.234-27.41-27.34V54.82c0-15.175,12.301-27.41,27.41-27.41
		h216.191c15.172,0,27.406,12.234,27.406,27.41v285.512l0.199,0.199c0.203,0.27,0.402,0.535,0.535,0.805
		c0.87,1.137,1.738,2.274,2.41,3.477c2.938,5.144,4.543,11.027,4.543,17.312v31.93l-0.106,20.962c0.039-0.032,0.07-0.07,0.106-0.102
		v0.222c12.035-10.094,19.722-25.203,19.722-42.047V54.82C418.879,24.602,394.277,0,364.063,0z" style="fill: rgba(0, 0, 0, 0.0980392);"></path>
	<polygon class="st0" points="377.117,181.141 377.117,168.687 136.472,168.687 134.996,168.687 134.996,168.687 134.836,168.687 
		134.836,180.942 134.832,180.977 134.836,180.977 134.836,181.141 	" style="fill: rgba(0, 0, 0, 0.0980392);"></polygon>
	<polygon class="st0" points="352.676,134.238 352.676,72.817 159.277,72.817 159.277,133.89 159.277,134.078 159.277,134.078 
		159.277,134.238 	" style="fill: rgba(0, 0, 0, 0.0980392);"></polygon>
	<polygon class="st0" points="204.945,241.094 204.945,205.012 160.09,205.012 160.09,240.715 160.09,240.934 160.09,240.934 
		160.09,241.094 	" style="fill: rgba(0, 0, 0, 0.0980392);"></polygon>
	<path class="st0" d="M257.301,228.293c6.582,0,12.691,1.797,18.003,4.813c1,0.602,2.028,1.16,2.962,1.871v-0.094
		c0.05,0.034,0.109,0.058,0.16,0.094v-29.95h-44.855v31.957C239.922,231.57,248.211,228.293,257.301,228.293z" style="fill: rgba(0, 0, 0, 0.0980392);"></path>
	<polygon class="st0" points="351.864,205.172 351.864,205.012 307.004,205.012 307.004,241.094 351.864,241.094 351.864,205.39 
		351.864,205.172 	" style="fill: rgba(0, 0, 0, 0.0980392);"></polygon>
	<polygon class="st0" points="204.945,300.859 204.945,264.774 160.383,264.774 160.246,264.774 160.246,264.774 160.09,264.774 
		160.09,300.477 160.09,300.695 160.09,300.695 160.09,300.859 	" style="fill: rgba(0, 0, 0, 0.0980392);"></polygon>
	<polygon class="st0" points="307.301,264.774 307.168,264.774 307.168,264.774 307.004,264.774 307.004,300.859 351.864,300.859 
		351.864,265.152 351.864,264.934 351.864,264.934 351.864,264.774 	" style="fill: rgba(0, 0, 0, 0.0980392);"></polygon>
	<path class="st0" d="M166.723,358.45c0.066-0.336,0.266-0.668,0.398-1.004c1.473-3.543,3.61-6.352,5.883-8.692
		c3.812-3.874,8.359-6.214,12.034-7.484c3.141-1.203,6.75-1.809,10.696-1.809c2.605,0,5.449,0.317,8.347,0.867
		c0.238,0.058,0.481,0.074,0.719,0.141v-0.027c0.054,0.011,0.105,0.011,0.16,0.023v-15.91h-44.859v36.031h5.882
		C166.188,359.851,166.453,359.117,166.723,358.45z" style="fill: rgba(0, 0, 0, 0.0980392);"></path>
	<path class="st0" d="M372.75,350.359c-2.738-2.274-6.347-3.609-10.226-3.609c-4.012,0-7.687,1.402-10.629,3.945
		c-0.402,0.332-0.734,0.668-1.07,1l-1.137,1.203l-3.141,3.344l-1.398,1.398l-1.809,1.535l0.063-3.469v-5.012
		c0-2.809-0.801-5.351-2.137-7.621c-2.742-4.614-7.887-7.688-13.84-7.688c-4.41,0-8.622,1.738-11.629,4.946l-4.348,4.481l-1.39,1.39
		l-1.813,1.543l0.062-3.469v-4.95c0-2.137-0.469-4.145-1.27-5.949c-1.335-3.207-3.878-5.883-7.019-7.622
		c-2.274-1.137-4.813-1.805-7.621-1.805c-4.481,0-8.626,1.738-11.699,4.95l-2.274,2.406l-2.07,2.137l-1.406,1.339l-0.598,0.645
		l-1.207,0.906l0.066-11.782l0.066-18.851v-4.879v-36.031v-0.402c0-8.488-7.152-15.374-15.976-15.374
		c-8.821,0-15.906,6.886-15.906,15.374v0.402v36.031v23.73v19.254l-0.07,16.777V376.5l-0.066,23.93h-7.621l-0.602-1.469
		c0-0.07-2.004-4.816-6.684-13.106c-1.871-3.472-4.278-7.484-7.152-12.098c-0.402-0.535-0.738-1.137-1.137-1.672
		c-1.473-2.074-3.145-3.742-4.879-5.214c-0.27-0.266-0.535-0.469-0.871-0.668c-1.672-1.336-3.476-2.473-5.281-3.344
		c-0.066,0-0.066,0-0.066,0c-2.473-1.203-5.016-1.938-7.29-2.274c-1.402-0.266-2.738-0.398-3.941-0.398
		c-1.606,0-2.676,0.199-3.344,0.398c-0.133,0.07-0.266,0.07-0.332,0.137c-0.27,0.066-0.535,0.133-0.738,0.266
		c-3.875,1.539-4.813,3.813-5.211,4.614c-0.605,1.539-0.805,3.344-0.668,5.215c0,0.133,0.063,0.266,0.063,0.402
		c0.269,3.074,1.472,6.348,2.609,9.09c1.27,3.41,2.942,7.621,4.946,12.434c1.004,2.406,2.074,5.015,3.145,7.687
		c3.542,8.355,7.687,17.782,12.164,27.41c12.504,26.606,27.609,54.613,39.507,64.309c2.942,2.339,5.95,4.878,9.161,6.882
		c13.37,8.492,29.347,12.969,46.328,12.969c16.976,0,33.023-4.41,46.324-12.969l1.07-0.668h0.734l0.535-0.398
		c1.117-0.746,2.054-1.637,3.098-2.438c0.402-0.309,0.797-0.621,1.183-0.934c0.965-0.781,2.039-1.469,2.938-2.312
		c4.68-4.211,8.692-9.094,11.836-14.371c1.535-2.676,2.871-5.485,4.008-8.294c1.07-2.937,1.942-5.949,2.477-8.957
		c0.398-2.004,0.668-3.942,0.801-5.882c0.066-0.801,0.066-1.602,0.066-2.406v-26.473v-29.614v-34.16
		c0.066-2.07-0.402-4.078-1.203-5.816C376.293,353.969,374.692,351.965,372.75,350.359z" style="fill: rgba(0, 0, 0, 0.0980392);"></path>
</g>
</svg>
