<!--?xml version="1.0" encoding="utf-8"?-->
<!-- Generator: Adobe Illustrator 18.1.1, SVG Export Plug-In . SVG Version: 6.00 Build 0)  -->

<svg version="1.1" id="_x31_0" xmlns="http://www.w3.org/2000/svg" xmlns:xlink="http://www.w3.org/1999/xlink" x="0px" y="0px" viewBox="0 0 512 512" style="width: 256px; height: 256px; opacity: 1;" xml:space="preserve">
<style type="text/css">
	.st0{fill:#374149;}
</style>
<g>
	<path class="st0" d="M465.598,8H46.398C20.797,8,0,28.801,0,54.481v403.121C0,483.282,20.797,504,46.398,504h419.199
		C491.199,504,512,483.282,512,457.602V54.481C512,28.801,491.199,8,465.598,8z M327.519,58.402
		c0-11.602,9.438-21.043,21.039-21.043c11.52,0,20.961,9.442,20.961,21.043c0,11.519-9.441,20.957-20.961,20.957
		C336.957,79.359,327.519,69.922,327.519,58.402z M397.519,58.402c0-11.602,9.438-21.043,21.039-21.043
		c11.52,0,20.961,9.442,20.961,21.043c0,11.519-9.441,20.957-20.961,20.957C406.957,79.359,397.519,69.922,397.519,58.402z
		 M464,455.086V456H48V104h416V455.086z" style="fill: rgba(0, 0, 0, 0.0980392);"></path>
	<polygon class="st0" points="312.222,230.641 319.019,230.641 322.199,220.789 324.797,213.149 330.438,230.641 337.234,230.641 
		344.754,204.305 346.859,197.09 346.813,197.086 346.859,196.926 338.207,196.926 335.621,206.746 333.351,214.844 
		327.836,196.926 321.625,196.926 318.586,206.793 315.969,214.832 311.305,196.926 304.633,196.926 302.805,196.883 
		302.817,196.926 302.649,196.926 	" style="fill: rgba(0, 0, 0, 0.0980392);"></polygon>
	<polygon class="st0" points="361.734,230.641 368.531,230.641 371.711,220.789 374.309,213.149 379.95,230.641 386.746,230.641 
		394.266,204.305 396.371,197.09 396.324,197.086 396.371,196.926 387.718,196.926 385.133,206.746 382.867,214.844 
		377.348,196.926 371.137,196.926 368.094,206.793 365.481,214.832 360.817,196.926 354.145,196.926 352.317,196.883 
		352.328,196.926 352.164,196.926 	" style="fill: rgba(0, 0, 0, 0.0980392);"></polygon>
	<polygon class="st0" points="411.246,230.641 418.043,230.641 421.222,220.789 423.82,213.149 429.461,230.641 436.258,230.641 
		443.778,204.305 445.883,197.09 445.836,197.086 445.883,196.926 437.23,196.926 434.645,206.746 432.375,214.844 426.859,196.926 
		420.649,196.926 417.61,206.793 414.992,214.832 410.328,196.926 403.656,196.926 401.828,196.883 401.84,196.926 401.672,196.926 
			" style="fill: rgba(0, 0, 0, 0.0980392);"></polygon>
	<polygon class="st0" points="424.406,278.238 324.652,278.238 324.282,278.234 324.282,278.238 324.121,278.238 324.121,292.906 
		424.406,292.906 424.406,278.484 424.41,278.398 424.406,278.398 	" style="fill: rgba(0, 0, 0, 0.0980392);"></polygon>
	<polygon class="st0" points="424.406,316.324 324.652,316.324 324.282,316.324 324.121,316.324 324.121,330.992 424.406,330.992 
		424.406,316.566 424.41,316.481 424.406,316.481 	" style="fill: rgba(0, 0, 0, 0.0980392);"></polygon>
	<polygon class="st0" points="324.282,354.406 324.282,354.41 324.121,354.41 324.121,369.078 404.078,369.078 404.078,354.614 
		404.078,354.57 404.078,354.41 324.59,354.41 	" style="fill: rgba(0, 0, 0, 0.0980392);"></polygon>
	<path class="st0" d="M80.102,337.242c0.614,1.16,1.375,2.21,2.035,3.336c1.281,2.273,2.641,4.648,4.129,7.449l0.004,0.004
		c-0.043,0.035-0.086,0.066-0.125,0.102l4.218,5.062c0.946,1.226,1.973,2.375,2.965,3.558l1.766,2.118
		c0.004-0.004,0.012-0.008,0.02-0.016c11.238,12.75,25.23,22.852,41.035,29.363c0.308,0.13,0.613,0.266,0.922,0.391
		c0.531,0.214,1.07,0.41,1.61,0.617c12.469,4.824,26.003,7.5,40.152,7.508c36.254,0.027,68.554-17.309,89.023-44.133l3.738-4.519
		c-0.102-0.086-0.214-0.165-0.316-0.246c7.523-11.012,13.152-23.414,16.363-36.758c2.015-8.36,3.086-17.102,3.094-26.078
		c0.004-8.977-1.051-17.718-3.054-26.086c-2.215-9.262-5.59-18.082-9.958-26.298c-0.609-1.16-1.371-2.206-2.031-3.332
		c-1.289-2.289-2.652-4.679-4.152-7.5l0,0c0.039-0.034,0.082-0.066,0.125-0.102l-4.43-5.343c-0.289-0.375-0.61-0.723-0.902-1.094
		l-3.582-4.329c-0.02,0.016-0.039,0.032-0.059,0.047c-11.328-12.855-25.445-23.023-41.398-29.531
		c-0.156-0.066-0.312-0.137-0.473-0.203c-0.675-0.27-1.363-0.519-2.046-0.781c-12.367-4.738-25.766-7.364-39.774-7.375
		c-33.359-0.024-63.351,14.656-83.879,37.882c0,0-0.004-0.004-0.007-0.004l-0.301,0.364c-1.434,1.633-2.821,3.304-4.157,5.019
		l-4.457,5.382c0.11,0.09,0.23,0.176,0.34,0.266c-7.531,11.012-13.16,23.426-16.375,36.77c-2.015,8.36-3.086,17.102-3.09,26.078
		c-0.008,8.977,1.05,17.718,3.05,26.086C72.344,320.195,75.726,329.019,80.102,337.242z M172.918,375.145
		c-1.554-0.106-3.094-0.266-4.629-0.446c-6.617-6.5-14.738-16.668-21.832-29.375c-1.422-2.546-2.781-5.234-4.102-7.984
		c-0.078-0.184-0.168-0.348-0.242-0.535c9.922-2.363,20.277-3.762,30.847-4.122l-0.027,37.266l-0.008,5.011L172.918,375.145z
		 M90.027,301.766c-0.687-3.602-1.074-7.285-1.32-11.019l26.898,0.023c0.586,11.488,2.844,22.714,6.226,33.297
		c0.398,1.25,0.875,2.453,1.305,3.687c-6.242,2.215-12.238,4.821-17.844,7.75c-0.316,0.168-0.613,0.351-0.93,0.519
		c-3.031-4.402-5.718-9.066-7.942-13.984v-0.023C93.516,315.625,91.355,308.836,90.027,301.766z M113.473,222.66
		c8.722-9.164,19.27-16.57,31.144-21.453c-5.8,7.918-11.382,17.168-16.078,27.398c-0.023,0.05-0.043,0.102-0.062,0.156l-0.414,0.176
		c-0.054-0.02-0.113-0.035-0.168-0.054c-4.336-1.504-8.473-3.309-12.484-5.262C114.766,223.285,114.121,223.019,113.473,222.66z
		 M129.824,278.961c0.676-11.602,3.219-22.672,6.852-32.863c0.289,0.07,0.574,0.16,0.863,0.234
		c11.378,2.778,23.242,4.383,35.234,4.77c0.082,0.004,0.168,0.004,0.25,0.004L173,278.871v0.125l-41.016-0.027L129.824,278.961z
		 M172.738,318.699c0,0-0.004,0-0.008,0c-12.062,0.39-23.922,2.012-35.226,4.809c-0.293,0.074-0.566,0.16-0.859,0.23
		c-3.633-10.215-6.172-21.321-6.828-32.961l43.175,0.035l-0.008,11.254L172.738,318.699z M173.035,235.672l-0.008,1.449
		c-10.222-0.347-20.293-1.706-30.004-3.93c-0.289-0.07-0.586-0.125-0.878-0.195c1.41-2.953,2.878-5.824,4.402-8.562
		c7.113-12.691,15.25-22.851,21.878-29.34c1.535-0.179,3.078-0.336,4.637-0.438L173.035,235.672z M105.313,234.289
		c5.625,2.981,11.652,5.59,17.882,7.758c-0.422,1.206-0.89,2.386-1.281,3.609c-3.418,10.578-5.696,21.794-6.301,33.301l-25.23-0.019
		l-1.665-0.008c0.246-3.73,0.641-7.422,1.332-11.019c1.34-7.066,3.512-13.828,6.426-20.219v-0.019
		c2.214-4.887,4.894-9.52,7.906-13.898C104.695,233.942,104.996,234.125,105.313,234.289z M113.473,347.082
		c4.554-2.294,9.359-4.391,14.378-6.172c0.145-0.051,0.305-0.094,0.45-0.145c0.054,0.121,0.102,0.246,0.156,0.363
		c3.786,8.297,8.172,15.91,12.782,22.738c0.586,0.883,1.187,1.75,1.778,2.625c0.382,0.625,0.793,1.211,1.14,1.887
		c-10.406-4.344-19.703-10.699-27.706-18.398C115.461,349.004,114.426,348.11,113.473,347.082z M235.918,324.176
		c3.395-10.578,5.676-21.805,6.274-33.313l25.141,0.02l1.758,0.003c-0.25,3.727-0.64,7.414-1.332,11.012
		c-1.34,7.07-3.515,13.852-6.382,20.238c-2.226,4.898-4.918,9.531-7.946,13.91c-0.305-0.161-0.594-0.336-0.898-0.493
		c-5.402-2.874-11.414-5.496-17.894-7.797C235.058,326.558,235.523,325.394,235.918,324.176z M215.656,336.844
		c-1.406,2.949-2.871,5.812-4.394,8.531c-7.098,12.695-15.23,22.851-21.855,29.34c-1.531,0.179-3.066,0.332-4.618,0.434
		c-0.015,0-0.031,0-0.046,0l0.031-42.466c10.281,0.348,20.343,1.719,30.027,3.966C215.082,336.722,215.371,336.77,215.656,336.844z
		 M221.125,323.742c-0.289-0.07-0.562-0.157-0.851-0.23c-11.324-2.801-23.195-4.422-35.258-4.813c-0.078,0-0.153,0-0.231-0.004
		l0.02-27.875l40.778,0.031l2.398,0.004C227.309,302.469,224.762,313.55,221.125,323.742z M215.695,233.027
		c-9.594,2.254-19.546,3.57-29.645,3.992c-0.406,0.012-0.8,0.082-1.206,0.09l0.031-42.446c1.566,0.106,3.109,0.262,4.652,0.446
		c6.618,6.496,14.742,16.66,21.824,29.374c1.418,2.555,2.774,5.242,4.094,7.985C215.527,232.66,215.617,232.832,215.695,233.027z
		 M185.054,251.106c0,0,0.004,0,0.008,0c11.992-0.39,23.844-1.996,35.23-4.774c0.293-0.074,0.582-0.164,0.875-0.238
		c3.547,10,6.043,20.844,6.762,32.199c0.016,0.25,0.043,0.496,0.054,0.746l-43.14-0.031h-0.031l0.011-11.825L185.054,251.106z
		 M213.422,368.293c5.719-7.859,11.223-16.996,15.844-27.086c0.066-0.145,0.125-0.297,0.187-0.442
		c0.141,0.047,0.298,0.09,0.434,0.137c4.489,1.594,8.618,3.402,12.539,5.316c0.637,0.332,1.293,0.606,1.926,0.958
		c-6.328,6.609-13.617,12.301-21.679,16.781c-2.558,1.402-5.215,2.653-7.918,3.821C214.313,367.938,213.863,368.152,213.422,368.293
		z M269.082,279.07l-26.879-0.02c-0.586-11.511-2.852-22.75-6.25-33.335c-0.398-1.242-0.87-2.438-1.297-3.665
		c6.45-2.293,12.461-4.902,17.821-7.742c0.332-0.172,0.64-0.359,0.973-0.535c3.046,4.422,5.746,9.102,7.98,14.043
		c2.859,6.39,5.023,13.156,6.352,20.226c0.664,3.476,1.035,7.05,1.277,10.656C269.062,278.832,269.078,278.934,269.082,279.07z
		 M244.355,222.75c-4.402,2.23-9.23,4.304-14.418,6.144c-0.062,0.02-0.125,0.039-0.187,0.058l-0.34-0.129
		c-0.02-0.046-0.039-0.098-0.059-0.144c-4.679-10.234-10.246-19.493-16.034-27.426c10.542,4.36,19.961,10.794,28.062,18.59
		C242.367,220.82,243.402,221.718,244.355,222.75z" style="fill: rgba(0, 0, 0, 0.0980392);"></path>
</g>
</svg>
