<!--?xml version="1.0" encoding="utf-8"?-->
<!-- Generator: Adobe Illustrator 19.1.1, SVG Export Plug-In . SVG Version: 6.00 Build 0)  -->
<svg version="1.1" id="_x31_0" xmlns="http://www.w3.org/2000/svg" xmlns:xlink="http://www.w3.org/1999/xlink" x="0px" y="0px" viewBox="0 0 512 512" style="width: 256px; height: 256px; opacity: 1;" xml:space="preserve">
<style type="text/css">
	.st0{fill:#374149;}
</style>
<g>
	<path class="st0" d="M410.804,355.45c0-9.363-3.035-17.992-8.199-24.992c9.562-7.73,15.695-19.558,15.695-32.789
		c0-23.293-18.961-42.254-42.254-42.254h-24.359h-53.484h-31.598l-2.922-0.016l8.062-79.89
		c2.965-29.492-17.594-56.515-46.786-61.515c-17.262-2.965-34.523,2.133-47.453,13.898c-12.926,11.762-19.558,28.523-18.226,45.949
		l9.664,125.629l0.535-0.035l9.43,122.695c0.266,42.519,34.59,89.87,80.406,89.87h67.714c27.355,0,50.25-20.527,53.214-47.718
		l1.801-16.492c10.828-7.664,17.926-20.262,17.926-34.524c0-8.633-2.598-16.66-7.031-23.359
		C403.737,382.242,410.804,369.645,410.804,355.45z M376.046,313.231h-6.062h-1.434h-58.586c-2.363,0-4.383,1.707-4.774,4.039
		l-1.554,9.289l-1.29,7.691c-0.492,2.95,1.782,5.637,4.778,5.637h59.926h1.5c4.465,0,8.527,1.902,11.363,4.934
		c2.633,2.766,4.23,6.496,4.23,10.629c0,5.332-2.699,10.066-6.797,12.832v0.031c-2.102,1.434-4.566,2.367-7.199,2.633
		c-0.531,0.031-1.066,0.066-1.598,0.066h-4.898h-5.898h-57.488c-2.363,0-4.383,1.707-4.774,4.035l-0.621,3.664l-0.93,5.629
		l-1.301,7.699c-0.489,2.95,1.785,5.633,4.773,5.633h60.34c1,0,2,0.098,2.93,0.297c5.965,1.133,10.73,5.664,12.164,11.531
		c0.301,1.199,0.465,2.465,0.465,3.766c0,2.466-0.562,4.832-1.633,6.898c-2.164,4.399-6.394,7.63-11.43,8.465
		c-0.797,0.13-1.633,0.2-2.496,0.2h-0.434h-68.187c-1.535,0-2.844,1.105-3.098,2.617l-1.793,10.711l-0.098,0.633l-1.188,7.054
		c-0.496,2.953,1.782,5.641,4.774,5.641h60.207l6.445,0.015l-0.629,5.883c-1.5,13.664-12.996,23.961-26.722,23.961h-67.714
		c-29.79,0-53.75-34.89-53.75-63.75l-9.43-123.125l-1.266-16.394h39.32h13.395h13.398h37.218h77.843
		c0.734,0,1.434,0.031,2.133,0.133c7.598,1.066,13.461,7.598,13.461,15.461c0,5.832-3.266,10.965-8.062,13.598
		C381.343,312.532,378.78,313.231,376.046,313.231z M192.3,255.384l-6.426-83.574c-0.699-9.199,2.797-17.996,9.594-24.226
		c6.801-6.199,15.898-8.863,24.992-7.297c15.465,2.633,26.328,16.926,24.762,32.523l-7.046,69.594l-26.961,7.695L192.3,255.384z" style="fill: rgba(0, 0, 0, 0.0980392);"></path>
	<path class="st0" d="M215.68,60.881c4.027-0.09,7.285-3.286,7.457-7.301l1.954-45.622c0.183-4.406-3.383-8.05-7.794-7.957
		l-5.902,0.137c-4.402,0.094-7.82,3.894-7.434,8.289l3.946,45.485C208.261,57.919,211.66,60.966,215.68,60.881z" style="fill: rgba(0, 0, 0, 0.0980392);"></path>
	<path class="st0" d="M301.347,90.232l33.641-30.875c3.246-2.98,3.297-8.09,0.118-11.137l-4.27-4.082
		c-3.184-3.047-8.282-2.77-11.114,0.61l-29.374,34.957c-2.586,3.078-2.336,7.637,0.57,10.422
		C293.82,92.9,298.39,92.95,301.347,90.232z" style="fill: rgba(0, 0, 0, 0.0980392);"></path>
	<path class="st0" d="M111.036,49.322c-2.985-3.242-8.082-3.297-11.137-0.117l-4.078,4.274c-3.05,3.179-2.774,8.277,0.602,11.117
		l34.965,29.371c3.078,2.586,7.637,2.336,10.418-0.566c2.778-2.906,2.829-7.477,0.106-10.438L111.036,49.322z" style="fill: rgba(0, 0, 0, 0.0980392);"></path>
</g>
</svg>
