<!--?xml version="1.0" encoding="utf-8"?-->
<!-- Generator: Adobe Illustrator 18.1.1, SVG Export Plug-In . SVG Version: 6.00 Build 0)  -->

<svg version="1.1" id="_x31_0" xmlns="http://www.w3.org/2000/svg" xmlns:xlink="http://www.w3.org/1999/xlink" x="0px" y="0px" viewBox="0 0 512 512" style="enable-background:new 0 0 512 512;" xml:space="preserve">
<style type="text/css">
	.st0{fill:#374149;}
</style>
<g>
	<path class="st0" d="M208.652,430.783c-2.39-2.297-5.363-4.168-8.835-5.554c-3.047-1.219-6.906-2.149-12.172-2.93l-11.914-1.688
		c-2.078-0.332-3.602-0.707-4.508-1.074c-1.027-0.484-1.961-1.046-2.91-1.758c-0.539-0.574-0.922-1.199-1.195-1.961
		c-0.294-0.758-0.454-1.614-0.454-2.414c0-2.328,0.867-4.281,2.684-6.098c1.789-1.722,4.898-2.598,9.238-2.598
		c2.864,0,6.114,0.375,9.668,1.122c3.114,0.637,5.829,2.094,8.547,4.594l2.375,2.179l16.453-15.656l0.695-0.652l-0.007-0.004
		l0.117-0.114l-2.602-2.496c-4.59-4.402-9.801-7.582-15.492-9.449c-5.508-1.805-11.981-2.719-19.246-2.719
		c-5.914,0-11.046,0.75-15.691,2.297c-4.684,1.562-8.758,3.813-12.11,6.684c-3.34,2.867-5.957,6.355-7.774,10.367
		c-1.804,3.992-2.679,8.316-2.679,13.222c0,9.168,2.77,16.386,8.234,21.461c2.672,2.473,5.652,4.359,9.082,5.746
		c3.504,1.465,7.629,2.515,12.192,3.117l11.941,1.79c2.657,0.355,4.215,0.762,4.989,1.019c0.75,0.266,1.511,0.734,2.168,1.278
		c1.324,1.27,1.996,3.117,1.996,5.492c0,2.68-0.973,4.621-3.004,6.07c-2.34,1.606-6.274,2.453-11.379,2.453
		c-4.484,0-8.558-0.523-12.129-1.566c-3.613-1.031-6.758-2.847-9.613-5.554l-2.387-2.262l-16.847,16.172l-0.649,0.613l0.008,0.004
		l-0.118,0.11l2.578,2.488c5.289,5.11,11.23,8.722,17.66,10.742c6.246,1.965,13.422,2.961,21.324,2.961
		c5.469,0,10.578-0.68,15.668-2.094c5.039-1.492,9.25-3.531,12.879-6.23c3.77-2.801,6.734-6.29,8.809-10.336
		c2.121-4.047,3.195-8.758,3.195-13.992c0-4.699-0.645-8.871-2.004-12.848C213.95,436.76,211.629,433.381,208.652,430.783z" style="fill: rgb(255, 255, 255);"></path>
	<path class="st0" d="M297.207,385.846H237.5c-2.274,0-4.117,1.84-4.117,4.114v87.726c0,2.274,1.843,4.117,4.117,4.117h59.707
		c2.274,0,4.117-1.843,4.117-4.117v-14.118c0-2.273-1.843-4.113-4.117-4.113h-34.726c-2.274,0-4.118-1.844-4.118-4.118v-6.523
		c0-2.274,1.844-4.117,4.118-4.117h28.359c2.274,0,4.117-1.84,4.117-4.114v-14.203c0-2.274-1.843-4.114-4.117-4.114h-28.359
		c-2.274,0-4.118-1.843-4.118-4.117v-5.762c0-2.274,1.844-4.114,4.118-4.114h34.726c2.274,0,4.117-1.843,4.117-4.113v-14.203
		C301.324,387.686,299.481,385.846,297.207,385.846z" style="fill: rgb(255, 255, 255);"></path>
	<path class="st0" d="M397.309,410.447c-0.75-3.382-1.883-6.546-3.359-9.406c-1.489-2.882-3.622-5.648-6.516-8.445
		c-3.656-3.566-7.89-6.325-12.554-8.192c-4.661-1.918-10.215-2.89-16.512-2.89c-6.438,0-11.867,0.946-16.539,2.871
		c-4.676,1.832-8.965,4.582-12.812,8.242c-2.86,2.859-4.954,5.613-6.399,8.414c-1.538,2.981-2.644,6.176-3.293,9.512
		c-0.703,3.703-1.082,7.218-1.164,10.676c-0.168,3.758-0.258,8.007-0.258,12.637c0,4.656,0.09,8.878,0.258,12.476
		c0.082,3.586,0.473,7.207,1.164,10.746c0.649,3.434,1.762,6.648,3.293,9.515c1.528,2.958,3.692,5.801,6.434,8.45
		c3.578,3.488,7.86,6.27,12.778,8.293c4.855,1.906,10.418,2.871,16.539,2.871c6.066,0,11.606-0.965,16.535-2.902
		c4.879-2.047,9.106-4.84,12.477-8.214c2.797-2.61,5.007-5.469,6.55-8.454c1.488-2.793,2.629-5.98,3.398-9.539
		c0.66-3.394,1.082-6.992,1.25-10.766c0.086-3.675,0.172-7.863,0.172-12.476c0-4.614-0.086-8.801-0.172-12.641
		C398.41,417.627,397.988,414.037,397.309,410.447z M346.426,455.842c-0.492-0.984-0.875-2.238-1.16-3.863
		c-0.379-1.75-0.535-4.172-0.687-6.934c-0.168-2.902-0.254-6.664-0.254-11.179c0-4.489,0.086-8.282,0.254-11.266
		c0.156-2.786,0.316-5.227,0.714-7.078c0.266-1.523,0.668-2.875,1.172-3.887c0.375-0.797,0.942-1.582,1.82-2.472
		c0.993-1.102,2.367-2.051,4.172-2.879c1.734-0.762,3.723-1.149,5.91-1.149c0.023,0,0.047,0,0.07,0
		c3.426,0.016,6.718,1.418,9.355,3.606c0.958,0.797,1.633,1.629,2.356,3.145c0.472,0.824,0.832,2.305,1.125,3.637
		c0.336,1.938,0.59,4.594,0.805,7.074c0.164,2.969,0.246,6.762,0.246,11.27c0,4.535-0.082,8.297-0.242,11.09
		c-0.282,3.386-0.524,5.531-0.782,7.023c-0.305,1.406-0.656,2.824-1.282,3.942c-0.43,0.922-0.957,1.683-1.675,2.406
		c-1.207,1.277-2.598,2.285-4.25,3.082c-1.57,0.754-3.386,1.102-5.726,1.102c-2.363,0-4.262-0.359-5.758-1.078
		c-1.828-0.918-3.305-1.962-4.454-3.176C347.406,457.506,346.84,456.721,346.426,455.842z" style="fill: rgb(255, 255, 255);"></path>
	<polygon class="st0" points="331.348,103.584 340.531,103.584 344.824,90.291 348.317,79.877 355.965,103.584 365.152,103.584 
		375.344,67.885 378.16,58.182 378.114,58.182 378.16,58.022 366.465,58.022 362.965,71.31 359.93,82.314 352.45,58.022 
		344.05,58.022 339.942,71.358 336.43,82.302 330.102,58.022 321.074,58.022 318.558,57.978 318.574,58.022 318.406,58.022 	" style="fill: rgb(255, 255, 255);"></polygon>
	<polygon class="st0" points="398.266,103.584 407.453,103.584 411.73,90.334 415.238,79.877 422.886,103.584 432.07,103.584 
		442.293,67.779 445.078,58.182 445.035,58.182 445.078,58.022 433.383,58.022 429.89,71.291 426.851,82.314 419.371,58.022 
		410.973,58.022 406.871,71.318 403.348,82.299 397.023,58.022 387.992,58.022 385.481,57.978 385.492,58.022 385.328,58.022 	" style="fill: rgb(255, 255, 255);"></polygon>
	<polygon class="st0" points="511.953,58.182 512,58.022 500.305,58.022 496.801,71.326 493.77,82.314 486.289,58.022 
		477.894,58.022 473.805,71.279 470.27,82.299 463.942,58.022 454.914,58.022 452.402,57.978 452.414,58.022 452.246,58.022 
		465.187,103.584 474.371,103.584 478.641,90.362 482.16,79.877 489.805,103.584 498.992,103.584 509.211,67.779 511.996,58.182 	
		" style="fill: rgb(255, 255, 255);"></polygon>
	<polygon class="st0" points="482.973,168.08 482.973,168.08 482.973,167.92 348.145,167.92 347.645,167.912 347.645,167.92 
		347.586,167.92 347.586,167.92 347.426,167.92 347.426,187.526 347.426,187.584 347.426,187.584 347.426,187.744 482.973,187.744 
		482.973,168.252 482.981,168.135 482.973,168.135 	" style="fill: rgb(255, 255, 255);"></polygon>
	<polygon class="st0" points="482.973,219.557 482.973,219.557 482.973,219.397 348.145,219.397 348,219.397 347.586,219.397 
		347.586,219.397 347.426,219.397 347.426,239.002 347.426,239.061 347.426,239.061 347.426,239.221 482.973,239.221 
		482.973,219.729 482.981,219.607 482.973,219.607 	" style="fill: rgb(255, 255, 255);"></polygon>
	<polygon class="st0" points="347.645,270.869 347.645,270.873 347.586,270.873 347.586,270.873 347.426,270.873 347.426,290.478 
		347.426,290.537 347.426,290.537 347.426,290.698 455.496,290.698 455.496,271.146 455.496,271.088 455.496,270.873 
		348.058,270.873 	" style="fill: rgb(255, 255, 255);"></polygon>
	<path class="st0" d="M284.715,106.256c-1.426-2.703-2.965-5.324-4.566-7.906c-1.199-2.121-2.434-4.297-3.746-6.766l-0.004-0.004
		c0.043-0.031,0.086-0.062,0.125-0.098l-5.98-7.226c-0.394-0.508-0.828-0.977-1.223-1.477l-4.843-5.851
		c-0.027,0.023-0.055,0.042-0.078,0.062c-15.309-17.375-34.394-31.118-55.957-39.914c-0.211-0.086-0.422-0.183-0.633-0.27
		c-0.918-0.367-1.844-0.706-2.77-1.058c-16.715-6.406-34.828-9.953-53.762-9.965C106.191,25.748,65.652,45.588,37.91,76.982
		l-0.012-0.008l-0.41,0.496c-1.934,2.207-3.808,4.465-5.617,6.782l-6.023,7.278c0.148,0.121,0.312,0.234,0.461,0.355
		c-10.18,14.886-17.79,31.66-22.133,49.699C1.453,152.885,0.008,164.702,0,176.834s1.418,23.949,4.125,35.258
		c2.996,12.535,7.57,24.465,13.485,35.578c1.426,2.707,2.965,5.325,4.566,7.902c1.191,2.106,2.418,4.266,3.722,6.711l0.004,0.008
		c-0.043,0.031-0.086,0.062-0.125,0.098l5.703,6.844c1.273,1.656,2.664,3.21,4.004,4.808l2.386,2.863
		c0.008-0.007,0.015-0.015,0.027-0.019c15.191,17.23,34.098,30.883,55.461,39.687c0.418,0.172,0.828,0.36,1.246,0.528
		c0.718,0.289,1.449,0.55,2.179,0.832c16.852,6.519,35.141,10.136,54.27,10.148c49,0.035,92.657-23.394,120.321-59.652l5.058-6.106
		c-0.141-0.118-0.293-0.222-0.43-0.336c10.168-14.879,17.774-31.645,22.117-49.68c2.727-11.301,4.172-23.113,4.18-35.25
		c0.008-12.133-1.422-23.95-4.125-35.254C295.18,129.283,290.617,117.362,284.715,106.256z M217.484,184.974
		c-0.91,15.695-4.351,30.672-9.269,44.45c-0.391-0.098-0.758-0.215-1.149-0.309c-15.305-3.789-31.351-5.981-47.656-6.508
		c-0.102-0.004-0.207,0-0.313-0.004l0.031-37.679l55.11,0.043L217.484,184.974z M200.89,106.806
		c-13.203,3.106-26.902,4.954-40.805,5.485c-0.301,0.008-0.602,0.039-0.906,0.043l0.042-57.371c2.114,0.14,4.203,0.355,6.286,0.598
		c8.945,8.781,19.926,22.523,29.496,39.703c1.93,3.472,3.778,7.129,5.57,10.859C200.676,106.358,200.789,106.572,200.89,106.806z
		 M159.465,131.248h0.008c16.207-0.527,32.226-2.699,47.621-6.457c0.394-0.094,0.786-0.219,1.18-0.317
		c4.793,13.516,8.168,28.172,9.141,43.52c0.019,0.336,0.058,0.672,0.074,1.007l-58.308-0.042h-0.043l0.012-13.168L159.465,131.248z
		 M159.043,298.904l0.042-57.394c13.153,0.446,26.043,2.137,38.489,4.887c1.082,0.25,2.179,0.453,3.258,0.722
		c-1.906,3.992-3.886,7.863-5.946,11.543c-9.598,17.16-20.59,30.886-29.542,39.656c-2.066,0.242-4.141,0.45-6.238,0.586
		C159.086,298.904,159.066,298.904,159.043,298.904L159.043,298.904z M197.762,289.698c7.75-10.633,15.199-23.004,21.461-36.672
		c0.086-0.191,0.164-0.402,0.25-0.594c0.191,0.062,0.398,0.121,0.586,0.187c6.047,2.145,11.61,4.578,16.898,7.156
		c0.883,0.454,1.79,0.832,2.664,1.305c-8.558,8.946-18.414,16.641-29.312,22.695c-3.122,1.711-6.328,3.282-9.602,4.746
		C199.726,288.916,198.734,289.373,197.762,289.698z M250.664,245.389c-7.301-3.887-15.426-7.426-24.187-10.539
		c0.574-1.617,1.199-3.195,1.734-4.84c4.59-14.301,7.668-29.473,8.48-45.027l33.981,0.027l2.375,0.008
		c-0.336,5.035-0.867,10.019-1.805,14.879c-1.809,9.558-4.746,18.722-8.626,27.359c-3.007,6.621-6.644,12.878-10.738,18.801
		C251.469,245.842,251.074,245.603,250.664,245.389z M273.043,169.045l-36.34-0.031c-0.793-15.554-3.848-30.746-8.446-45.05
		c-0.535-1.684-1.175-3.297-1.754-4.954c8.718-3.098,16.844-6.625,24.086-10.465c0.45-0.23,0.871-0.488,1.313-0.722
		c4.121,5.977,7.77,12.301,10.789,18.977c3.867,8.64,6.79,17.785,8.586,27.339c0.906,4.738,1.418,9.606,1.746,14.512
		C273.027,168.787,273.039,168.908,273.043,169.045z M239.633,92.912c-5.953,3.02-12.484,5.824-19.504,8.313
		c-0.152,0.05-0.305,0.098-0.461,0.148l-0.199-0.113c-0.043-0.11-0.086-0.219-0.137-0.325c-6.32-13.832-13.844-26.343-21.672-37.066
		c14.238,5.883,26.95,14.566,37.89,25.086C236.906,90.283,238.324,91.51,239.633,92.912z M143.058,298.897
		c-2.102-0.145-4.179-0.356-6.254-0.602c-8.942-8.782-19.922-22.524-29.512-39.699c-1.926-3.454-3.77-7.098-5.562-10.828
		c-0.102-0.234-0.214-0.45-0.316-0.688c13.41-3.195,27.41-5.086,41.706-5.574l-0.038,50.371l-0.012,6.684L143.058,298.897z
		 M31.019,199.721c-0.926-4.867-1.449-9.852-1.777-14.894l36.355,0.031c0.789,15.531,3.844,30.699,8.414,45.008
		c0.539,1.687,1.179,3.312,1.762,4.98c-8.438,2.992-16.543,6.516-24.114,10.477c-0.434,0.226-0.836,0.469-1.262,0.699
		c-4.098-5.954-7.726-12.25-10.73-18.902v-0.031C35.738,218.451,32.817,209.275,31.019,199.721z M74.121,123.881
		c-4.617,14.297-7.699,29.457-8.511,45.008l-34.106-0.023l-2.25-0.008c0.336-5.043,0.867-10.035,1.801-14.894
		c1.813-9.555,4.746-18.695,8.688-27.328v-0.028c2.996-6.609,6.613-12.867,10.683-18.785c0.426,0.226,0.828,0.473,1.254,0.695
		c7.605,4.027,15.754,7.558,24.175,10.484C75.285,120.635,74.652,122.229,74.121,123.881z M62.703,92.81
		c11.789-12.386,26.047-22.406,42.106-29.008c-7.844,10.707-15.383,23.207-21.73,37.032c-0.086,0.191-0.161,0.39-0.246,0.582
		c-0.207-0.074-0.422-0.133-0.629-0.207c-5.817-2.015-11.367-4.438-16.75-7.054C64.535,93.686,63.621,93.306,62.703,92.81z
		 M143.172,168.947l-55.438-0.043l-2.918-0.007l0,0c0.91-15.68,4.347-30.645,9.258-44.422c0.39,0.098,0.774,0.223,1.164,0.317
		c15.382,3.758,31.418,5.93,47.625,6.453c0.114,0.004,0.226,0.004,0.336,0.004l-0.027,37.527V168.947z M142.813,222.607h-0.008
		c-16.301,0.527-32.332,2.719-47.614,6.5c-0.394,0.098-0.766,0.215-1.16,0.313c-4.91-13.809-8.34-28.82-9.226-44.551l58.355,0.043
		l-0.008,12.558L142.813,222.607z M143.215,110.666l-0.004,1.679c-13.047-0.442-25.902-2.113-38.34-4.82
		c-1.137-0.258-2.282-0.469-3.41-0.746c1.91-3.992,3.89-7.878,5.957-11.582c9.614-17.157,20.614-30.887,29.57-39.657
		c2.074-0.242,4.161-0.453,6.27-0.59L143.215,110.666z M62.699,260.974c6.16-3.102,12.656-5.938,19.45-8.347
		c0.195-0.066,0.41-0.126,0.605-0.195c0.074,0.16,0.137,0.332,0.211,0.496c5.118,11.21,11.047,21.496,17.274,30.726
		c0.797,1.199,1.613,2.375,2.418,3.566c0.535,0.851,1.098,1.664,1.598,2.57c-14.066-5.859-26.629-14.446-37.453-24.844
		C65.438,263.615,64.012,262.385,62.699,260.974z" style="fill: rgb(255, 255, 255);"></path>
</g>
</svg>
