<!--?xml version="1.0" encoding="utf-8"?-->
<!-- Generator: Adobe Illustrator 18.1.1, SVG Export Plug-In . SVG Version: 6.00 Build 0)  -->

<svg version="1.1" id="_x31_0" xmlns="http://www.w3.org/2000/svg" xmlns:xlink="http://www.w3.org/1999/xlink" x="0px" y="0px" viewBox="0 0 512 512" style="width: 256px; height: 256px; opacity: 1;" xml:space="preserve">
<style type="text/css">
	.st0{fill:#374149;}
</style>
<g>
	<polygon class="st0" points="201.418,172.484 201.418,128.25 201.418,128.113 201.418,128.113 201.418,127.953 51.785,127.953 
		6.871,166.574 0.102,172.364 0.121,172.379 0,172.484 51.785,217.02 201.418,217.02 	" style="fill: rgb(75, 75, 75);"></polygon>
	<path class="st0" d="M511.879,172.609l0.121-0.106l-54.226-46.66H305.25v93.282h152.523l46.863-40.29l7.262-6.21L511.879,172.609z
		 M467.078,172.52l-20.176,17.336H334.519v-34.742h112.383l17.668,15.219L467.078,172.52z" style="fill: rgb(75, 75, 75);"></path>
	<path class="st0" d="M244.84,90.601v335.188h22.281V90.601c9.996-4.308,16.934-14.218,16.934-25.758
		c0-15.508-12.542-28.094-28.054-28.094s-28.098,12.586-28.098,28.094C227.902,76.383,234.886,86.293,244.84,90.601z" style="fill: rgb(75, 75, 75);"></path>
	<path class="st0" d="M298.019,440.422h-84.035c-13.882,0-25.086,11.246-25.086,25.086v9.742h134.207v-9.742
		C323.106,451.668,311.859,440.422,298.019,440.422z" style="fill: rgb(75, 75, 75);"></path>
</g>
</svg>
