<!--?xml version="1.0" encoding="utf-8"?-->
<!-- Generator: Adobe Illustrator 18.1.1, SVG Export Plug-In . SVG Version: 6.00 Build 0)  -->

<svg version="1.1" id="_x31_0" xmlns="http://www.w3.org/2000/svg" xmlns:xlink="http://www.w3.org/1999/xlink" x="0px" y="0px" viewBox="0 0 512 512" style="enable-background:new 0 0 512 512;" xml:space="preserve">
<style type="text/css">
	.st0{fill:#374149;}
</style>
<g>
	<path class="st0" d="M56.879,0v149.359l50.801,34.879l15.121,10.398l8.723,5.961l20.281,14.313
		c-38.141,30.558-62.606,77.586-62.606,130.289C89.199,437.359,163.84,512,256,512c92.078,0,166.801-74.641,166.801-166.801
		c0-32.527-9.312-62.879-25.41-88.543c-0.024-0.035-0.043-0.07-0.062-0.106c-1.051-1.671-2.161-3.304-3.27-4.934
		c-0.762-1.136-1.508-2.285-2.301-3.402c-0.246-0.344-0.508-0.676-0.754-1.016c-8.672-12.039-18.973-23.066-30.808-32.746
		l29.003-19.816l15.122-10.398l50.801-34.879V0H56.879z M200.398,57.199h111.199v121.359l-8.718,6H302.8
		c-9.281-2.641-18.882-4.558-28.801-5.602h-0.082c-5.84-0.718-11.84-1.039-17.918-1.039c-6,0-12,0.321-17.839,1.039h-0.082
		c-9.84,1.043-19.519,2.961-28.801,5.602l-8.879-6.078V57.41V57.199z M256,454.801c-60.48,0-109.602-49.203-109.602-109.602
		c0-41.039,22.641-76.882,56-95.602c7.199-4.078,14.879-7.281,22.962-9.68c9.762-2.797,20-4.32,30.64-4.32
		c10.641,0,20.879,1.523,30.641,4.32h0.078c8.082,2.399,15.762,5.68,22.961,9.68c33.359,18.801,55.918,54.562,55.918,95.602
		C365.597,405.598,316.48,454.801,256,454.801z" style="fill: rgb(255, 255, 255);"></path>
	<path class="st0" d="M304.113,323.019l-31.649-0.25c-0.015-0.023-0.062-0.019-0.07-0.051l-15.973-49.152
		c-0.129-0.402-0.695-0.402-0.825,0l-6.304,19.398l-10.012,30.004c-0.027,0.008-0.039,0.05-0.07,0.05h-51.683
		c-0.422,0-0.598,0.539-0.254,0.79l16.461,11.957l25.481,18.824c-0.004,0.031,0.039,0.051,0.027,0.082l-15.973,49.156
		c-0.129,0.398,0.328,0.73,0.672,0.485l16.492-11.981l25.742-18.398c0.031,0.012,0.062-0.019,0.086,0l41.816,30.379
		c0.34,0.246,0.801-0.086,0.668-0.485l-6.278-19.328l-9.562-30.23c0.023-0.023,0.004-0.066,0.027-0.086l41.813-30.374
		c0.34-0.25,0.168-0.79-0.254-0.79H304.113z" style="fill: rgb(255, 255, 255);"></path>
</g>
</svg>
