<!--?xml version="1.0" encoding="utf-8"?-->
<!-- Generator: Adobe Illustrator 18.1.1, SVG Export Plug-In . SVG Version: 6.00 Build 0)  -->

<svg version="1.1" id="_x31_0" xmlns="http://www.w3.org/2000/svg" xmlns:xlink="http://www.w3.org/1999/xlink" x="0px" y="0px" viewBox="0 0 512 512" style="width: 256px; height: 256px; opacity: 1;" xml:space="preserve">
<style type="text/css">
	.st0{fill:#374149;}
</style>
<g>
	<path class="st0" d="M455.112,232.297c0.125-0.414,0.222-0.832,0.32-1.25c0.961-4.039,1.442-8.203,1.442-12.305
		c0-43.91-22.18-84.582-62.434-114.547c-8.91-6.606-18.43-12.5-28.398-17.598c-0.254-0.129-0.481-0.254-0.734-0.382
		c-0.602-0.29-1.191-0.582-1.774-0.86l-0.34-0.238c0.969-0.534,1.91-1.098,2.848-1.722c1.922-1.156,3.816-2.438,5.641-3.816
		c6.218-4.582,10.195-11.633,10.961-19.325c0.738-7.691-1.824-15.418-7.016-21.152c-5.098-5.578-12.438-8.817-20.16-8.817
		c-5.965,0-11.89,1.926-16.73,5.45c-1.23,0.898-2.5,1.66-3.836,2.309c-0.098,0.035-0.18,0.09-0.278,0.121
		c-2.414-13.187-11.414-25.641-25.214-32.683C302.357,1.922,294.604,0,286.975,0c-12.141,0-23.122,4.805-30.555,12.922
		c-0.14,0.149-0.301,0.282-0.445,0.438C248.572,4.965,237.388,0,225.021,0c-7.629,0-15.382,1.922-22.434,5.481
		c-13.023,6.66-21.734,18.171-24.691,30.558c-0.183,0.714-0.414,1.422-0.558,2.148c-1.402-0.671-2.774-1.496-4.078-2.453
		c-4.84-3.523-10.766-5.45-16.73-5.45c-7.722,0-15.062,3.238-20.16,8.817c-5.191,5.734-7.754,13.461-7.016,21.152
		c0.77,7.692,4.742,14.742,10.962,19.325c1.824,1.378,3.718,2.66,5.671,3.816c0.637,0.426,1.29,0.789,1.938,1.168
		c0.297,0.215,0.602,0.383,0.898,0.633c-0.687,0.313-1.422,0.68-2.133,1.051c-0.222,0.129-0.48,0.222-0.703,0.351
		c-10.062,5.16-19.613,11.058-28.43,17.629c-40.254,29.934-62.434,70.606-62.434,114.516c0,4.133,0.481,8.266,1.442,12.305
		c0.098,0.418,0.195,0.836,0.321,1.25c-32.594,33.653-51.95,75.832-51.95,121.566C4.936,464.211,117.334,512,256.014,512
		c138.648,0,251.05-47.789,251.05-158.137C507.064,308.129,487.705,265.95,455.112,232.297z M168.084,364.539
		c2.746,1.543,5.335,3.226,7.758,5.031c0.293,0.218,0.59,0.438,0.882,0.664c2.402,1.851,4.622,3.82,6.657,5.879
		c0.289,0.293,0.582,0.582,0.863,0.882c1.855,1.95,3.523,3.981,5.023,6.058c0.41,0.57,0.809,1.137,1.195,1.715
		c7.442,11.187,9.688,23.707,4.817,34.316c-8.879,19.294-37.883,24.969-64.805,12.594c-26.922-12.336-41.539-38.008-32.691-57.336
		c8.878-19.328,37.882-25,64.804-12.629c1.438,0.66,2.817,1.37,4.18,2.105C167.209,364.054,167.651,364.293,168.084,364.539z
		 M146.564,218.742c0,16.664-14.746,30.222-32.882,30.222c-17.918,0-32.661-13.367-32.887-29.809l0.035-0.48l-0.066-0.254
		c0.16-46.602,33.59-90.222,87.336-113.843c4.871-2.149,9.711-4.039,14.746-5.832c0.094-0.031,0.222-0.066,0.32-0.098h0.031
		l0.992-0.352c13.782-4.68,28.332-7.98,43.43-9.871c0.801-0.098,1.57-0.191,2.371-0.258c5.062-0.574,10.129-0.992,15.062-1.184
		c3.528-0.195,7.211-0.289,10.962-0.289c3.718,0,7.402,0.094,10.992,0.289c4.938,0.192,9.969,0.61,15,1.184
		c0.801,0.066,1.606,0.16,2.406,0.258c14.934,1.859,29.546,5.16,43.426,9.902l0.386,0.129c0.286,0.098,0.574,0.192,0.863,0.321
		c5.063,1.73,10.063,3.718,14.84,5.801c53.715,23.652,87.176,67.21,87.336,113.746l-0.062,0.512v0.289
		c-0.226,16.473-14.969,29.84-32.886,29.84c-18.137,0-32.883-13.558-32.883-30.222c0-38.813-50.094-71.602-109.418-71.602
		C196.689,147.141,146.564,179.93,146.564,218.742z M150.604,52.047c1.57-1.696,3.715-2.531,5.926-2.531
		c1.89,0,3.817,0.609,5.418,1.766c8.011,5.832,17.469,8.906,27.21,8.906c2.274,0,4.582-0.16,6.86-0.511
		c1.218-0.176,2.374-0.504,3.546-0.79c0.695-0.129,1.438-0.273,2.118-0.37c-0.031-0.024-0.051-0.055-0.078-0.082
		c0.062-0.016,0.125-0.023,0.183-0.039c-1.605-1.41-2.949-3.141-3.945-5.129c-5.321-10.414,0.738-24.133,13.496-30.641
		c4.484-2.274,9.23-3.394,13.683-3.394c8.238,0,15.61,3.715,19.07,10.481c4.902,9.644-5.098,23.461-11.121,29.164
		c-0.129,0.129-0.258,0.258-0.386,0.351c-0.032,0-0.032,0.031-0.063,0.066l-1.957,1.762c-0.125,0.094-0.222,0.192-0.32,0.29
		c-0.031,0.031-0.031,0.031-0.031,0.031c-0.192,0.16-0.29,0.258-0.29,0.258c-0.351,0.289-0.671,0.543-1.023,0.832
		c-0.258,0-0.481,0.031-0.738,0.062c-18.942,2.051-37.21,6.156-54.293,12.149c-1.633-0.418-3.301-0.898-4.902-1.442
		c-6.09-2.086-11.89-5.129-17.18-9.07C147.908,61.278,147.299,55.703,150.604,52.047z M314.154,53.266
		c-0.801,1.598-1.874,2.973-3.078,4.203c-0.282,0.246-0.516,0.562-0.821,0.774c0.028,0.008,0.055,0.008,0.082,0.015
		c-0.047,0.043-0.082,0.098-0.125,0.137c1.89,0.543,3.781,0.992,5.766,1.282c2.277,0.351,4.586,0.511,6.859,0.511
		c9.742,0,19.199-3.074,27.211-8.906c1.602-1.157,3.527-1.766,5.418-1.766c2.211,0,4.355,0.835,5.926,2.531
		c3.305,3.656,2.695,9.23-1.152,12.117c-5.352,3.942-11.153,6.985-17.242,9.07c-1.637,0.543-3.238,1.023-4.902,1.442
		c-17.117-6.027-35.351-10.098-54.293-12.149c-0.226-0.031-0.481-0.031-0.707-0.062c0,0-0.004,0-0.008,0l-1.335-1.121l-2.278-2.051
		c0-0.035-0.031-0.066-0.062-0.066c-0.129-0.094-0.226-0.222-0.356-0.351c-6.023-5.672-16.054-19.52-11.121-29.164
		c3.43-6.766,10.801-10.481,19.039-10.481c4.453,0,9.199,1.121,13.683,3.394C313.448,29.133,319.475,42.851,314.154,53.266z" style="fill: rgb(75, 75, 75);"></path>
	<path class="st0" d="M279.697,59.484l1.25,1.122c-0.192-0.16-0.414-0.352-0.641-0.578
		C280.116,59.867,279.892,59.676,279.697,59.484z" style="fill: rgb(75, 75, 75);"></path>
</g>
</svg>
