<!--?xml version="1.0" encoding="utf-8"?-->
<!-- Generator: Adobe Illustrator 18.0.0, SVG Export Plug-In . SVG Version: 6.00 Build 0)  -->

<svg version="1.1" id="_x31_0" xmlns="http://www.w3.org/2000/svg" xmlns:xlink="http://www.w3.org/1999/xlink" x="0px" y="0px" viewBox="0 0 512 512" style="width: 256px; height: 256px; opacity: 1;" xml:space="preserve">
<style type="text/css">
	.st0{fill:#374149;}
</style>
<g>
	<path class="st0" d="M256,0C114.614,0,0,114.617,0,256c0,141.386,114.614,256,256,256s256-114.614,256-256
		C512,114.617,397.386,0,256,0z M412.539,392.738l-16.164-16.164c-5.758,7.398-12.402,14.042-19.805,19.801l16.168,16.164
		c-33.297,29.121-75.906,47.809-122.734,50.938v-22.692c-4.598,0.578-9.25,0.973-14.004,0.973c-4.754,0-9.406-0.394-14.004-0.973
		v22.692c-46.828-3.129-89.438-21.817-122.734-50.938l16.168-16.164c-7.402-5.758-14.046-12.402-19.805-19.801l-16.164,16.164
		c-29.121-33.297-47.805-75.906-50.938-122.734h22.692c-0.574-4.598-0.969-9.25-0.969-14.004c0-4.75,0.394-9.406,0.969-14.004
		H48.523c3.133-46.824,21.817-89.434,50.938-122.73l16.164,16.164c5.758-7.398,12.402-14.046,19.805-19.805l-16.164-16.164
		c33.293-29.121,75.902-47.805,122.73-50.938v22.692c4.598-0.574,9.25-0.969,14.004-0.969c4.754,0,9.406,0.394,14.004,0.969V48.523
		c46.828,3.133,89.438,21.817,122.73,50.938l-16.164,16.164c7.402,5.758,14.046,12.406,19.805,19.805l16.164-16.164
		c29.121,33.297,47.805,75.906,50.938,122.73h-22.692c0.574,4.598,0.969,9.254,0.969,14.004c0,4.754-0.394,9.406-0.969,14.004
		h22.692C460.344,316.832,441.66,359.442,412.539,392.738z" style="fill: rgb(255, 255, 255);"></path>
	<path class="st0" d="M210.75,224.558l-102.962-47.039c-6-2.801-13.121-0.16-15.839,5.922c-2.801,6-0.161,13.117,5.922,15.84
		l103.836,47.437C202.988,238.558,206.11,231.039,210.75,224.558z" style="fill: rgb(255, 255, 255);"></path>
	<path class="st0" d="M380.668,184.238l-84.558,34c9.199,9.683,14.878,22.722,15.039,37.121l84.48-34
		c10.242-4.16,15.199-15.758,11.122-26C402.59,185.121,390.91,180.078,380.668,184.238z" style="fill: rgb(255, 255, 255);"></path>
	<path class="st0" d="M181.309,420.32c-1.52,4.161,0.562,8.719,4.718,10.321c0.961,0.32,1.844,0.48,2.801,0.48
		c3.282,0,6.321-2,7.52-5.199l43.523-117.203c-5.282-1.598-10.164-3.918-14.562-6.957L181.309,420.32z" style="fill: rgb(255, 255, 255);"></path>
	<circle class="st0" cx="256" cy="256" r="38.149" style="fill: rgb(255, 255, 255);"></circle>
</g>
</svg>
