<!--?xml version="1.0" encoding="utf-8"?-->
<!-- Generator: Adobe Illustrator 18.0.0, SVG Export Plug-In . SVG Version: 6.00 Build 0)  -->

<svg version="1.1" id="_x31_0" xmlns="http://www.w3.org/2000/svg" xmlns:xlink="http://www.w3.org/1999/xlink" x="0px" y="0px" viewBox="0 0 512 512" style="width: 256px; height: 256px; opacity: 1;" xml:space="preserve">
<style type="text/css">
	.st0{fill:#374149;}
</style>
<g>
	<path class="st0" d="M255.998,198c-31.981,0-58,26.015-58,58c0,31.976,26.019,57.999,58,57.999
		c31.98,0,57.999-26.023,57.999-57.999C313.998,224.016,287.978,198,255.998,198z" style="fill: rgb(75, 75, 75);"></path>
	<path class="st0" d="M505.519,206l-91.593-5.586c-2.023-5.75-4.32-11.359-6.93-16.797l60.793-68.703
		c2.418-2.734,2.293-6.874-0.286-9.453l-60.968-60.96c-2.582-2.578-6.722-2.711-9.457-0.29l-68.695,60.789
		c-5.438-2.61-11.05-4.906-16.797-6.93l-5.59-91.593c-0.222-3.641-3.242-6.477-6.886-6.477h-86.222
		c-3.648,0-6.664,2.836-6.886,6.477l-5.59,91.593c-5.746,2.023-11.359,4.32-16.797,6.93l-68.699-60.789
		c-2.734-2.422-6.874-2.297-9.453,0.282L44.5,105.462c-2.582,2.578-2.707,6.719-0.29,9.453l60.793,68.703
		c-2.614,5.438-4.906,11.046-6.93,16.797L6.481,206C2.84,206.227,0,209.243,0,212.891v86.218c0,3.648,2.84,6.664,6.481,6.882
		l91.593,5.594c2.023,5.742,4.316,11.36,6.93,16.797L44.21,397.085c-2.418,2.726-2.293,6.867,0.29,9.445l60.964,60.969
		c2.578,2.578,6.718,2.71,9.449,0.289l68.703-60.789c5.438,2.61,11.05,4.906,16.797,6.922l5.59,91.601
		c0.222,3.641,3.238,6.477,6.886,6.477h86.222c3.644,0,6.664-2.836,6.886-6.477l5.59-91.601c5.746-2.015,11.359-4.312,16.797-6.922
		l68.699,60.789c2.73,2.414,6.87,2.289,9.449-0.289l60.972-60.961c2.578-2.586,2.703-6.726,0.286-9.453l-60.793-68.703
		c2.61-5.437,4.906-11.054,6.93-16.797l91.593-5.594c3.641-0.218,6.481-3.234,6.481-6.882v-86.218
		C512,209.243,509.16,206.227,505.519,206z M345.998,256c0,49.624-40.375,89.999-89.999,89.999c-49.625,0-90-40.375-90-89.999
		c0-49.629,40.375-90,90-90C305.622,166,345.998,206.372,345.998,256z" style="fill: rgb(75, 75, 75);"></path>
</g>
</svg>
