<!--?xml version="1.0" encoding="utf-8"?-->
<!-- Generator: Adobe Illustrator 18.0.0, SVG Export Plug-In . SVG Version: 6.00 Build 0)  -->

<svg version="1.1" id="_x31_0" xmlns="http://www.w3.org/2000/svg" xmlns:xlink="http://www.w3.org/1999/xlink" x="0px" y="0px" viewBox="0 0 512 512" style="width: 256px; height: 256px; opacity: 1;" xml:space="preserve">
<style type="text/css">
	.st0{fill:#374149;}
</style>
<g>
	<path class="st0" d="M256,0C114.614,0,0,114.614,0,256s114.614,256,256,256s256-114.614,256-256S397.386,0,256,0z M256,448
		c-105.867,0-192-86.133-192-192S150.133,64,256,64s192,86.133,192,192S361.867,448,256,448z" style="fill: rgb(75, 75, 75);"></path>
	<path class="st0" d="M346.957,177.926C309.16,148.41,256,209.199,256,209.199s-53.16-60.789-90.957-31.274
		C85.774,239.832,255.996,369.019,256,369.023C256.004,369.019,426.226,239.832,346.957,177.926z" style="fill: rgb(75, 75, 75);"></path>
</g>
</svg>
