<!--?xml version="1.0" encoding="utf-8"?-->
<!-- Generator: Adobe Illustrator 18.1.1, SVG Export Plug-In . SVG Version: 6.00 Build 0)  -->

<svg version="1.1" id="_x31_0" xmlns="http://www.w3.org/2000/svg" xmlns:xlink="http://www.w3.org/1999/xlink" x="0px" y="0px" viewBox="0 0 512 512" style="width: 256px; height: 256px; opacity: 1;" xml:space="preserve">
<style type="text/css">
	.st0{fill:#374149;}
</style>
<g>
	<path class="st0" d="M508.438,213.461c-7.867-46.902-28.535-89.511-58.266-124.106c-8.485-9.882-17.715-19.105-27.602-27.586
		c-34.606-29.719-77.211-50.363-124.09-58.207C284.672,1.187,270.492,0,256,0c-14.492,0-28.672,1.187-42.543,3.562
		C106.324,21.55,21.55,106.324,3.562,213.461C1.187,227.328,0,241.512,0,256c0,14.492,1.187,28.676,3.562,42.481
		c7.844,46.874,28.485,89.48,58.199,124.086c8.535,9.946,17.824,19.222,27.778,27.75c34.562,29.648,77.098,50.266,123.918,58.121
		C227.328,510.817,241.508,512,256,512c14.492,0,28.672-1.183,42.481-3.496c39.949-6.711,76.793-22.742,108.242-45.742
		c21.684-15.816,40.742-34.973,56.493-56.707c22.746-31.304,38.625-67.898,45.285-107.574c2.313-13.805,3.5-27.989,3.5-42.481
		C512,241.512,510.813,227.328,508.438,213.461z M298.481,55.016c0-10.234,9.789-17.856,19.625-15.024
		c74.05,21.309,132.531,79.786,153.89,153.832c2.836,9.84-4.785,19.637-15.023,19.637H375.27c-5.886,0-11.274-3.328-13.852-8.617
		c-11.511-23.61-30.695-42.794-54.301-54.266c-5.3-2.574-8.636-7.969-8.636-13.86V55.016z M39.992,193.832
		c21.305-74.05,79.79-132.531,153.84-153.84c9.836-2.832,19.625,4.79,19.625,15.024v81.702c0,5.891-3.336,11.286-8.637,13.86
		c-23.598,11.469-42.773,30.644-54.242,54.242c-2.578,5.301-7.969,8.641-13.863,8.641H55.016
		C44.782,213.461,37.16,203.672,39.992,193.832z M213.457,456.977c0,10.238-9.797,17.859-19.633,15.019
		c-74.05-21.355-132.527-79.84-153.832-153.89c-2.832-9.836,4.79-19.625,15.024-19.625h81.699c5.894,0,11.285,3.336,13.863,8.636
		c11.469,23.61,30.652,42.794,54.262,54.301c5.289,2.578,8.617,7.966,8.617,13.852V456.977z M256,341.957
		c-15.492,0-29.984-4.058-42.543-11.305c-13.367-7.621-24.484-18.804-32.168-32.171c-7.187-12.555-11.246-27.051-11.246-42.481
		c0-15.492,4.058-29.984,11.246-42.539c7.684-13.371,18.801-24.488,32.168-32.172c12.559-7.183,27.051-11.246,42.543-11.246
		c15.43,0,29.922,4.062,42.481,11.246c13.367,7.684,24.55,18.801,32.171,32.172c7.246,12.555,11.305,27.047,11.305,42.539
		c0,15.43-4.058,29.926-11.305,42.481c-7.621,13.367-18.804,24.55-32.171,32.171C285.922,337.898,271.43,341.957,256,341.957z
		 M472.062,318.114c-21.355,74.102-79.847,132.594-153.949,153.949c-9.84,2.836-19.633-4.785-19.633-15.023v-81.754
		c0-5.894,3.336-11.285,8.633-13.859c23.613-11.476,42.832-30.699,54.312-54.309c2.574-5.3,7.965-8.636,13.859-8.636h81.754
		C467.278,298.481,474.894,308.274,472.062,318.114z" style="fill: rgb(75, 75, 75);"></path>
</g>
</svg>
